<svg width="20px" height="20px" viewBox="0 0 512 512">
    <path id="Path_28" d="M288.6 229.9c13.4-10.1 21.4-25.8 21.4-42.6 0-29.6-24-53.6-53.7-53.7-29.6 0-53.6 24-53.7 53.7 0 16.9 8.1 32.7 21.6 42.8l-115 264.5c-1.5 3.4.1 7.4 3.5 8.8l12.3 5.3c3.4 1.5 7.3-.1 8.8-3.5l56.6-130.1h131.9l56.6 130.1c1.5 3.4 5.4 5 8.8 3.5l12.3-5.3c2.4-1.2 3.9-3.5 4-6.2 0-.9-.2-1.8-.6-2.7L288.6 229.9zm-32.2-69.4c14.8 0 26.8 12 26.8 26.8s-12 26.8-26.8 26.8-26.8-12-26.8-26.8 12-26.8 26.8-26.8zm-54.2 187.8l47-108.1c2.4.4 4.8.6 7.2.7 2.5-.1 5-.3 7.4-.8l47 108.1H202.2z" opacity=".5" fill="#fff"/><path id="Path_31" opacity="0.2" fill="#fff" d="M364.4 301c2.7 2.6 7.1 2.5 9.7-.2l.1-.1c59.9-65.8 59.9-166.3 0-232.1-2.6-2.8-6.9-3-9.7-.4l-.1.1-9.9 9.4c-2.7 2.5-2.8 6.7-.3 9.4 50.1 55.4 50.1 139.7 0 195.1-2.5 2.7-2.3 6.9.3 9.4l9.9 9.4zm76.1 63.3C533.2 263 533 106 440.5 4.9c-2.5-2.7-6.7-3-9.5-.5l-.2.2L421 14c-2.7 2.6-2.8 6.8-.3 9.6 82.9 90.7 82.9 231.3 0 322.1-2.5 2.7-2.4 7 .3 9.5l9.8 9.4c2.7 2.6 6.9 2.5 9.5-.1.1-.1.2-.1.2-.2z"/><path id="Path_32" opacity="0.2" fill="#fff" d="M147.6 68.2c-2.7-2.6-7.1-2.5-9.7.2l-.1.1c-59.9 65.8-59.9 166.3 0 232.1 2.6 2.8 6.9 3 9.7.4l.1-.1 9.9-9.4c2.7-2.5 2.8-6.7.3-9.4-50.1-55.4-50.1-139.7 0-195.1 2.5-2.7 2.3-6.9-.3-9.4l-9.9-9.4zM71.5 4.9c-92.7 101.3-92.5 258.3 0 359.4 2.5 2.7 6.7 3 9.5.5l.2-.2 9.8-9.4c2.7-2.6 2.8-6.8.3-9.6-82.9-90.7-82.9-231.3 0-322.1 2.5-2.7 2.4-7-.3-9.5l-9.8-9.4c-2.7-2.6-6.9-2.5-9.5.1-.1.1-.2.1-.2.2z"/>
</svg>
