<svg width="20px" height="20px" viewBox="0 0 512 512">
    <path d="M448 0H64C28.7 0 0 28.7 0 64v288c0 35.3 28.7 64 64 64h96v84c0 7.1 5.8 12 12 12 2.4 0 4.9-.7 7.1-2.4L304 416h144c35.3 0 64-28.7 64-64V64c0-35.3-28.7-64-64-64zm32 352c0 17.6-14.4 32-32 32H293.3l-8.5 6.4L192 460v-76H64c-17.6 0-32-14.4-32-32V64c0-17.6 14.4-32 32-32h384c17.6 0 32 14.4 32 32v288z"/><path d="M339 192.9h-11.3v-34c0-39.5-32.2-71.7-71.7-71.7s-71.7 32.2-71.7 71.7v34H173c-12.5 0-22.6 10.1-22.6 22.6v90.6c0 12.5 10.1 22.6 22.6 22.6h166c12.5 0 22.6-10.1 22.6-22.6v-90.6c.1-12.5-10.1-22.6-22.6-22.6zm-64.1 79.2c0 10.4-8.4 18.9-18.9 18.9-10.4 0-18.9-8.4-18.9-18.9v-22.6c0-10.4 8.4-18.9 18.9-18.9 10.4 0 18.9 8.4 18.9 18.9v22.6zm15.1-79.2h-68v-34c0-18.7 15.2-34 34-34s34 15.2 34 34v34z"/>
</svg>
